<?xml version="1.0" encoding="UTF-8" standalone="no"?>
<svg width="24px" height="24px" viewBox="0 0 240 240" version="1.1" xmlns="http://www.w3.org/2000/svg" xmlns:xlink="http://www.w3.org/1999/xlink">
    <!-- Generator: Sketch 47.1 (45422) - http://www.bohemiancoding.com/sketch -->
    <title>Artboard</title>
    <desc>Created with Sketch.</desc>
    <defs></defs>
    <g id="Article" stroke="none" stroke-width="1" fill="none" fill-rule="evenodd">
        <g id="Artboard" stroke="#696969">
            <g id="Group" transform="translate(58.000000, 25.000000)">
                <path d="M12,10 L78.4023438,10 L123,54.2363281 L123,166 L123,166 C123,172.627417 117.627417,178 111,178 L12,178 L12,178 C5.372583,178 7.91705186e-15,172.627417 7.10542736e-15,166 L3.55271368e-15,22 L5.32907052e-15,22 C4.51744602e-15,15.372583 5.372583,10 12,10 Z" id="Rectangle-4" stroke-width="12"></path>
                <path d="M79.5,15.5073618 L79.5,47.8683645 C79.9085359,50.058923 80.5674064,51.4241358 81.3323922,52.1345636 C82.1542296,52.8977884 83.5203526,53.453535 85.6152689,53.6884766 L117.10809,53.6884766 C117.384233,53.6884766 117.60809,53.4646189 117.60809,53.1884766 C117.60809,53.0544085 117.554249,52.9259568 117.458654,52.8319581 L79.5,15.5073618 Z" id="Path-2" stroke-width="13"></path>
                <path d="M34.5,88.5 L88.5,88.5" id="Line" stroke-width="12" stroke-linecap="square"></path>
                <path d="M34.5,111.5 L88.5,111.5" id="Line-Copy" stroke-width="12" stroke-linecap="square"></path>
                <path d="M34.5,134.5 L61.5,134.5" id="Line-Copy-3" stroke-width="12" stroke-linecap="square"></path>
            </g>
        </g>
    </g>
</svg>