<?xml version="1.0" encoding="UTF-8" standalone="no"?>
<svg width="715px" height="573px" viewBox="0 0 715 573" version="1.1" xmlns="http://www.w3.org/2000/svg" xmlns:xlink="http://www.w3.org/1999/xlink">
    <!-- Generator: Sketch 47.1 (45422) - http://www.bohemiancoding.com/sketch -->
    <title>Logo Mobile</title>
    <desc>Created with Sketch.</desc>
    <defs></defs>
    <g id="Home-page-final-version" stroke="none" stroke-width="1" fill="none" fill-rule="evenodd">
        <g id="Logo-Mobile">
            <g id="Logo" transform="translate(129.000000, 1.000000)">
                <path d="M124,210 L332.401476,210 C367.135229,210 393.799538,218.642478 412.395203,235.927694 C430.990868,253.21291 440.288561,274.613333 440.288561,300.129604 C440.288561,321.530348 433.653203,339.885326 420.382288,355.195089 C411.535011,365.401597 398.591967,373.46791 381.552768,379.39427 C407.439244,385.649872 426.485179,396.391238 438.691144,411.61869 C450.897109,426.846143 457,445.983059 457,469.030014 C457,487.79682 452.658346,504.67023 443.974908,519.65075 C435.291469,534.631271 423.413359,546.483813 408.340221,555.208731 C399.001429,560.641228 384.911533,564.592075 366.070111,567.061392 C341.002827,570.353814 324.373473,572 316.18155,572 L124,572 L124,210 Z M236.310701,351.984993 L284.724723,351.984993 C302.0916,351.984993 314.174505,348.980703 320.973801,342.972033 C327.773097,336.963362 331.172694,328.279729 331.172694,316.920873 C331.172694,306.385122 327.773097,298.154191 320.973801,292.227831 C314.174505,286.301471 302.337354,283.338336 285.461993,283.338336 L236.310701,283.338336 L236.310701,351.984993 Z M236.310701,494.216917 L293.080443,494.216917 C312.249542,494.216917 325.766012,490.80108 333.630258,483.969304 C341.494504,477.137528 345.426568,467.960039 345.426568,456.436562 C345.426568,445.73619 341.535463,437.134867 333.753137,430.632333 C325.97081,424.129799 312.331463,420.878581 292.834686,420.878581 L236.310701,420.878581 L236.310701,494.216917 Z" id="B" fill="#4C4C4C"></path>
                <path d="M-2.27373675e-13,191.251979 C-2.27373675e-13,130.944729 16.7652482,83.9931319 50.2962475,50.3957784 C83.8272469,16.7984248 130.518463,0 190.371297,0 C251.733026,0 299.011026,16.5044524 332.206715,49.5138522 C365.402404,82.5232521 382,128.760916 382,188.228232 C382,231.400832 374.74903,266.803512 360.246873,294.437335 C345.744716,322.071158 325.455194,343.589681 297.376564,358.943931 C269.297933,374.298182 235.805778,382 194.897959,382 C153.31952,382 118.908848,375.364622 91.6649111,362.093668 C64.4209742,348.822713 42.3327597,327.824682 25.399605,299.098945 C8.46645034,270.373207 -2.27373675e-13,234.424578 -2.27373675e-13,191.251979 Z M113.921001,191.755937 C113.921001,229.048999 120.836666,255.842487 134.668203,272.137203 C148.49974,288.43192 167.318731,296.579156 191.125741,296.579156 C215.60337,296.579156 233.769408,288.867876 247.9605,272.641161 C262.151593,256.414446 268.078999,228.041104 268.078999,186.716359 C268.078999,151.943098 261.079508,126.53548 247.080316,110.492744 C233.081124,94.4500077 214.09448,86.4287599 190.119816,86.4287599 C167.151081,86.4287599 148.709308,94.5759959 134.793943,110.870712 C120.878579,127.165429 113.921001,154.126901 113.921001,191.755937 Z" id="O" fill="#9203B2" opacity="0.900000036"></path>
                <path d="M321.601485,342.702852 C351.557443,362.33669 374.749829,377.050339 381.317793,380 C398.341447,374.052448 411.272683,365.957291 420.111888,355.714286 C433.370696,340.349777 440,321.929165 440,300.451895 C440,274.844381 430.71079,253.367434 412.13209,236.020408 C393.553391,218.673383 366.913408,210 332.211344,210 L124,210 C124,210 171.774511,240.356507 225.198538,276.302948 C228.911514,278.80123 232.571879,281.387958 236.208241,284.021942 L236.208236,283.600583 L285.314685,283.600583 C302.17465,283.600583 314.001002,286.574314 320.794095,292.521866 C327.587188,298.469417 330.983683,306.729782 330.983683,317.303207 C330.983683,328.241735 327.856314,336.708206 321.601485,342.702852 Z" id="B-Copy" fill="#4C4C4C"></path>
                <path d="M260,193.236242 L266.510947,193.236242 L269.674284,203.624832 L272.945113,193.236242 L279.256431,193.236242 L272.330873,209.62953 L266.787355,209.62953 L260,193.236242 Z M286.505353,187 L292.755248,187 L292.755248,191.275839 L286.505353,191.275839 L286.505353,187 Z M286.505353,193.236242 L292.755248,193.236242 L292.755248,209.62953 L286.505353,209.62953 L286.505353,193.236242 Z M319.122397,187 L319.122397,209.62953 L313.271759,209.62953 L313.271759,207.20604 C312.452768,208.235128 311.70545,208.929752 311.029782,209.289933 C310.128892,209.763313 309.125643,210 308.020005,210 C305.798492,210 304.10167,209.151015 302.929489,207.45302 C301.757308,205.755025 301.171226,203.691735 301.171226,201.263087 C301.171226,198.546295 301.818732,196.467569 303.113761,195.026846 C304.408791,193.586123 306.054426,192.865772 308.050717,192.865772 C309.023269,192.865772 309.90623,193.030423 310.699628,193.359732 C311.493026,193.68904 312.196836,194.182994 312.811079,194.841611 L312.811079,187 L319.122397,187 Z M312.857147,201.386577 C312.857147,200.100217 312.58586,199.140607 312.043279,198.507718 C311.500697,197.874829 310.814802,197.558389 309.985574,197.558389 C309.258719,197.558389 308.649604,197.861966 308.158209,198.469128 C307.666814,199.076289 307.421121,200.095071 307.421121,201.525503 C307.421121,202.863318 307.674492,203.843509 308.181243,204.466107 C308.687994,205.088706 309.315024,205.4 310.062354,205.4 C310.86087,205.4 311.52629,205.086133 312.058635,204.458389 C312.590979,203.830646 312.857147,202.806719 312.857147,201.386577 Z M328.3676,187 L334.617495,187 L334.617495,191.275839 L328.3676,191.275839 L328.3676,187 Z M328.3676,193.236242 L334.617495,193.236242 L334.617495,209.62953 L328.3676,209.62953 L328.3676,193.236242 Z M361,209.62953 L355.164718,209.62953 L355.164718,206.974497 C354.29454,208.06533 353.416697,208.84228 352.531163,209.305369 C351.645629,209.768459 350.557922,210 349.268011,210 C347.54813,210 346.199375,209.482891 345.221704,208.448658 C344.244033,207.414424 343.755205,205.821935 343.755205,203.671141 L343.755205,193.236242 L350.035812,193.236242 L350.035812,202.251007 C350.035812,203.280095 350.225201,204.010736 350.603984,204.442953 C350.982767,204.87517 351.515104,205.091275 352.201009,205.091275 C352.948338,205.091275 353.560013,204.803135 354.036051,204.226846 C354.51209,203.650556 354.750106,202.616339 354.750106,201.124161 L354.750106,193.236242 L361,193.236242 L361,209.62953 Z" id="vidiu" fill="#FFFFFF"></path>
                <path d="M140.640563,568.208581 L126.947311,568.208581 C127.070372,569.329819 127.366833,570.165014 127.836702,570.714191 C128.496755,571.503634 129.358169,571.89835 130.420967,571.89835 C131.092208,571.89835 131.729878,571.726734 132.333995,571.383498 C132.703178,571.166116 133.100323,570.782841 133.525442,570.233663 L140.254601,570.868647 C139.225365,572.699239 137.983587,574.012097 136.529231,574.807261 C135.074875,575.602424 132.988465,576 130.269939,576 C127.909407,576 126.052334,575.659629 124.698665,574.978878 C123.344995,574.298126 122.22348,573.216949 121.334085,571.735314 C120.444691,570.253678 120,568.511781 120,566.509571 C120,563.660712 120.892178,561.355344 122.676561,559.593399 C124.460944,557.831454 126.924921,556.950495 130.068567,556.950495 C132.619284,556.950495 134.632977,557.345211 136.109708,558.134653 C137.586438,558.924096 138.71075,560.068199 139.482678,561.566997 C140.254605,563.065794 140.640563,565.01649 140.640563,567.419142 L140.640563,568.208581 Z M133.693251,564.862046 C133.559003,563.511984 133.20381,562.545217 132.627661,561.961716 C132.051513,561.378215 131.293581,561.086469 130.353843,561.086469 C129.26867,561.086469 128.401663,561.526948 127.752797,562.407921 C127.338865,562.957098 127.075966,563.775132 126.964092,564.862046 L133.693251,564.862046 Z M147.568856,557.362376 L153.962396,557.362376 L153.962396,560.348515 C154.577701,559.055659 155.212573,558.166119 155.867034,557.679868 C156.521494,557.193617 157.329768,556.950495 158.29188,556.950495 C159.298742,556.950495 160.40068,557.270844 161.597726,557.911551 L159.483327,562.888449 C158.677838,562.545213 158.040168,562.373597 157.570299,562.373597 C156.675311,562.373597 155.981706,562.751151 155.489462,563.506271 C154.784659,564.570302 154.432263,566.561042 154.432263,569.478548 L154.432263,575.588119 L147.568856,575.588119 L147.568856,557.362376 Z M186.095669,550.429043 L186.095669,575.588119 L179.702129,575.588119 L179.702129,572.893729 C178.807141,574.03785 177.990476,574.810119 177.252111,575.210561 C176.267624,575.736856 175.17128,576 173.963046,576 C171.53539,576 169.681114,575.056115 168.400162,573.168317 C167.11921,571.280519 166.478744,568.986592 166.478744,566.286469 C166.478744,563.265991 167.186334,560.954903 168.601534,559.353135 C170.016734,557.751367 171.815074,556.950495 173.996608,556.950495 C175.059406,556.950495 176.024301,557.133552 176.891321,557.49967 C177.758341,557.865788 178.52746,558.414958 179.198701,559.147195 L179.198701,550.429043 L186.095669,550.429043 Z M179.249044,566.423762 C179.249044,564.993612 178.952583,563.926736 178.359654,563.223102 C177.766724,562.519468 177.017182,562.167657 176.111007,562.167657 C175.316705,562.167657 174.651067,562.505167 174.114074,563.180198 C173.577081,563.855229 173.308589,564.987891 173.308589,566.578218 C173.308589,568.065574 173.585472,569.155332 174.139246,569.847525 C174.69302,570.539717 175.378235,570.885809 176.194912,570.885809 C177.067525,570.885809 177.794692,570.536857 178.376434,569.838944 C178.958177,569.141031 179.249044,568.002648 179.249044,566.423762 Z M194.232191,550.429043 L201.062035,550.429043 L201.062035,555.182838 L194.232191,555.182838 L194.232191,550.429043 Z M194.232191,557.362376 L201.062035,557.362376 L201.062035,575.588119 L194.232191,575.588119 L194.232191,557.362376 Z M209.383147,550.429043 L216.229773,550.429043 L216.229773,575.588119 L209.383147,575.588119 L209.383147,550.429043 Z M230.541682,563.266007 L224.013894,562.562376 C224.260016,561.395374 224.615209,560.477231 225.079484,559.807921 C225.543759,559.138611 226.212193,558.557978 227.084807,558.066007 C227.711299,557.711329 228.572712,557.436745 229.669073,557.242244 C230.765433,557.047744 231.951275,556.950495 233.226633,556.950495 C235.273919,556.950495 236.918435,557.067766 238.160231,557.30231 C239.402027,557.536855 240.436842,558.025959 241.264706,558.769637 C241.846448,559.284491 242.305123,560.013857 242.640743,560.957756 C242.976364,561.901655 243.144172,562.802636 243.144172,563.660726 L243.144172,571.709571 C243.144172,572.567661 243.197311,573.239822 243.303591,573.726073 C243.409871,574.212324 243.642005,574.833 244,575.588119 L237.589679,575.588119 C237.33237,575.11903 237.164562,574.761497 237.08625,574.515512 C237.007939,574.269526 236.929629,573.883391 236.851317,573.357096 C235.956329,574.238068 235.066948,574.867325 234.183147,575.244884 C232.974913,575.748297 231.570921,576 229.97113,576 C227.845533,576 226.231781,575.496595 225.129827,574.489769 C224.027873,573.482943 223.476904,572.241592 223.476904,570.765677 C223.476904,569.381291 223.874049,568.242909 224.668351,567.350495 C225.462653,566.458081 226.928174,565.794502 229.064959,565.359736 C231.626862,564.833441 233.288159,564.464468 234.048899,564.252805 C234.809639,564.041143 235.615117,563.763698 236.465355,563.420462 C236.465355,562.562372 236.291954,561.961718 235.945146,561.618482 C235.598338,561.275246 234.988637,561.10363 234.116023,561.10363 C232.997288,561.10363 232.158249,561.286687 231.598881,561.652805 C231.162575,561.938835 230.810178,562.476564 230.541682,563.266007 Z M236.465355,566.938614 C235.525618,567.28185 234.546739,567.585037 233.52869,567.848185 C232.141458,568.225744 231.263264,568.597578 230.894082,568.963696 C230.513712,569.341256 230.323529,569.770295 230.323529,570.250825 C230.323529,570.800003 230.510915,571.249063 230.885691,571.59802 C231.260467,571.946976 231.811436,572.121452 232.538614,572.121452 C233.299354,572.121452 234.006944,571.932675 234.661404,571.555116 C235.315864,571.177556 235.780132,570.717054 236.054222,570.173597 C236.328312,569.63014 236.465355,568.923657 236.465355,568.054125 L236.465355,566.938614 Z M236.700289,550 L239.469145,550 C239.402021,551.086914 239.150309,551.999336 238.714002,552.737294 C238.277695,553.475251 237.617652,554.067325 236.733851,554.513531 C235.85005,554.959738 234.893545,555.182838 233.864309,555.182838 C232.163831,555.182838 230.804588,554.728057 229.786539,553.818482 C228.76849,552.908906 228.175569,551.636092 228.007759,550 L230.894082,550 C231.117829,550.66359 231.436663,551.135532 231.850595,551.415842 C232.264528,551.696151 232.885416,551.836304 233.71328,551.836304 C234.68658,551.836304 235.382982,551.696151 235.802508,551.415842 C236.222034,551.135532 236.521291,550.66359 236.700289,550 Z" id="erdilă" fill="#FFFFFF"></path>
            </g>
        </g>
    </g>
</svg>