<?xml version="1.0" encoding="UTF-8" standalone="no"?>
<svg width="482px" height="604px" viewBox="0 0 482 604" version="1.1" xmlns="http://www.w3.org/2000/svg" xmlns:xlink="http://www.w3.org/1999/xlink">
    <!-- Generator: Sketch 43.2 (39069) - http://www.bohemiancoding.com/sketch -->
    <title>Logo simple</title>
    <desc>Created with Sketch.</desc>
    <defs></defs>
    <g id="Home-page-final-version" stroke="none" stroke-width="1" fill="none" fill-rule="evenodd">
        <g id="Logo-simple">
            <g id="Logo">
                <path d="M130,222 L350.292251,222 C387.00781,222 415.193506,231.119963 434.850185,249.360164 C454.506863,267.600364 464.335055,290.18313 464.335055,317.109141 C464.335055,339.692246 457.321103,359.061311 443.292989,375.216917 C433.940913,385.987321 420.259377,394.499287 402.24797,400.75307 C429.611453,407.354285 449.744093,418.689097 462.646494,434.757844 C475.548896,450.826592 482,471.020797 482,495.341064 C482,515.14471 477.410624,532.950353 468.231734,548.758527 C459.052845,564.5667 446.497005,577.074079 430.563838,586.281037 C420.692202,592.013671 405.798378,596.182797 385.881919,598.78854 C359.384369,602.262864 341.806193,604 333.146863,604 L130,604 L130,222 Z M248.718819,371.829468 L299.895203,371.829468 C318.252982,371.829468 331.025302,368.659195 338.212546,362.318554 C345.39979,355.977913 348.993358,346.814521 348.993358,334.828104 C348.993358,323.710267 345.39979,315.024588 338.212546,308.770805 C331.025302,302.517022 318.512758,299.390177 300.674539,299.390177 L248.718819,299.390177 L248.718819,371.829468 Z M248.718819,521.919509 L308.727675,521.919509 C328.990507,521.919509 343.278187,518.314952 351.591144,511.10573 C359.904101,503.896508 364.060517,494.211975 364.060517,482.051842 C364.060517,470.760289 359.947397,461.683754 351.721033,454.821965 C343.49467,447.960175 329.077102,444.529332 308.467897,444.529332 L248.718819,444.529332 L248.718819,521.919509 Z" id="B" fill="#4C4C4C"></path>
                <path d="M-2.27373675e-13,201.765831 C-2.27373675e-13,138.143261 17.686898,88.6105554 53.0612245,53.1662269 C88.435551,17.7218984 137.693562,0 200.836735,0 C265.571752,0 315.448804,17.4117652 350.469388,52.2358179 C385.489971,87.0598707 403,135.839396 403,198.575858 C403,244.12182 395.350417,281.470721 380.05102,310.623681 C364.751624,339.776641 343.34671,362.478119 313.72449,378.676451 C284.102269,394.874783 248.768923,403 205.612245,403 C161.74808,403 125.445722,395.99985 96.7040816,381.99934 C67.9624413,367.998831 44.6599533,345.846458 26.7959184,315.541557 C8.93188347,285.236656 -2.27373675e-13,247.311793 -2.27373675e-13,201.765831 Z M120.183673,202.297493 C120.183673,241.640698 127.479519,269.907126 142.071429,287.097625 C156.663338,304.288125 176.516881,312.883245 201.632653,312.883245 C227.455911,312.883245 246.620605,304.748047 261.591837,287.629288 C276.563068,270.510528 282.816327,240.577395 282.816327,196.980871 C282.816327,160.295991 275.432047,133.491619 260.663265,116.566953 C245.894484,99.6422856 225.864072,91.1800792 200.571429,91.1800792 C176.340015,91.1800792 156.884427,99.7751999 142.204082,116.965699 C127.523736,134.156199 120.183673,162.599845 120.183673,202.297493 Z" id="O" fill="#9303B3" opacity="0.900000036"></path>
                <path d="M339.066787,361.535545 C370.760858,382.180301 395.298918,397.651534 402.24797,400.75307 C420.259377,394.499287 433.940913,385.987321 443.292989,375.216917 C457.321103,359.061311 464.335055,339.692246 464.335055,317.109141 C464.335055,290.18313 454.506863,267.600364 434.850185,249.360164 C415.193506,231.119963 387.00781,222 350.292251,222 L130,222 C130,222 180.546499,253.919523 237.070313,291.716797 C240.998724,294.343712 244.871472,297.063627 248.718824,299.833231 L248.718819,299.390177 L300.674539,299.390177 C318.512758,299.390177 331.025302,302.517022 338.212546,308.770805 C345.39979,315.024588 348.993358,323.710267 348.993358,334.828104 C348.993358,346.329841 345.684531,355.23224 339.066783,361.535542 Z" id="B-Copy" fill="#4C4C4C"></path>
            </g>
        </g>
    </g>
</svg>